<?xml version="1.0" encoding="UTF-8"?>
<!-- Generator: visioncortex VTracer -->
<svg id="svg" version="1.1" xmlns="http://www.w3.org/2000/svg" style="display: block;" viewBox="0 0 1080 257"><path d="M0 0 C16.83 0 33.66 0 51 0 C53.97 10.23 56.94 20.46 60 31 C63.33726243 27.66273757 65.81827617 25.0959076 68.41015625 21.34765625 C69.00763672 20.48849609 69.60511719 19.62933594 70.22070312 18.74414062 C70.82849609 17.85919922 71.43628906 16.97425781 72.0625 16.0625 C72.97999023 14.74088867 72.97999023 14.74088867 73.91601562 13.39257812 C77.54024847 8.18477605 77.54024847 8.18477605 80.78393555 2.73754883 C83 0 83 0 86.11621094 -0.68115234 C87.90720215 -0.634021 87.90720215 -0.634021 89.734375 -0.5859375 C91.02988281 -0.56660156 92.32539062 -0.54726563 93.66015625 -0.52734375 C95.02346165 -0.477215 96.38674289 -0.42642536 97.75 -0.375 C99.12884865 -0.34489131 100.5077599 -0.31751703 101.88671875 -0.29296875 C105.25939731 -0.22221326 108.62890827 -0.12351802 112 0 C114.42054923 6.18584803 116.37677108 12.423533 118.1875 18.8125 C118.46013672 19.75287109 118.73277344 20.69324219 119.01367188 21.66210938 C119.39942383 23.0146582 119.39942383 23.0146582 119.79296875 24.39453125 C120.0252417 25.20768799 120.25751465 26.02084473 120.49682617 26.85864258 C121 29 121 29 121 32 C124.9182037 28.42697139 127.75422544 24.27369164 130.75 19.9375 C132.26690345 17.75644967 133.78561721 15.58197865 135.34960938 13.43432617 C137.08962031 10.97194578 137.08962031 10.97194578 138.54101562 8.01293945 C142.70731486 0.69655468 142.70731486 0.69655468 146.84411621 -0.56027222 C152.22114943 -1.37097531 157.5948561 -1.00243093 163 -0.6875 C164.64957622 -0.63225491 166.29933037 -0.5820766 167.94921875 -0.53710938 C171.97057533 -0.41653573 175.98331494 -0.22720964 180 0 C177.85847298 3.8156083 175.75089433 7.53248383 173.15234375 11.05859375 C172.63534912 11.7657251 172.11835449 12.47285645 171.58569336 13.20141602 C171.04178955 13.93932373 170.49788574 14.67723145 169.9375 15.4375 C165.68871446 21.25889185 161.49930745 27.109004 157.4375 33.0625 C154.64546466 37.15134621 151.84566892 41.23336995 149 45.28515625 C148.49678223 46.00251953 147.99356445 46.71988281 147.47509766 47.45898438 C146.4536986 48.89783042 145.41952696 50.3276979 144.37255859 51.74804688 C141.89653261 55.13124095 139.75186191 58.34919718 138.0390625 62.18359375 C136.01066623 66.36045831 134.2667396 69.82856013 130 72 C120.35076163 73.73775702 110.73973257 72.61421737 101 72 C97.7 60.45 94.4 48.9 91 37 C85.93789302 43.32763372 81.00995369 49.60649866 76.3125 56.1875 C75.77044922 56.94224609 75.22839844 57.69699219 74.66992188 58.47460938 C74.13560547 59.21904297 73.60128906 59.96347656 73.05078125 60.73046875 C72.52137939 61.44565674 71.99197754 62.16084473 71.4465332 62.89770508 C69.96462618 64.93510354 69.96462618 64.93510354 68.99682617 67.0925293 C67.84909058 69.31575752 67.04539971 70.53652698 65 72 C60.20512468 72.86448404 55.53900837 72.65747372 50.6875 72.4375 C49.37458984 72.40591797 48.06167969 72.37433594 46.70898438 72.34179688 C43.47038991 72.25935992 40.2363306 72.14432328 37 72 C34.50016785 65.65394644 32.57130655 59.24558265 30.75 52.67578125 C30.13563453 50.49147517 29.52104452 48.30723223 28.90625 46.12304688 C27.94890842 42.70710045 26.99389063 39.29054211 26.04296875 35.87280273 C25.11841122 32.55528674 24.18480772 29.24042115 23.25 25.92578125 C22.96866211 24.90486893 22.68732422 23.8839566 22.39746094 22.83210754 C20.3871432 14.75855142 20.3871432 14.75855142 15.09887695 8.69799805 C14.40238037 8.38902588 13.70588379 8.08005371 12.98828125 7.76171875 C11.85229492 7.24448242 11.85229492 7.24448242 10.69335938 6.71679688 C9.90767578 6.37712891 9.12199219 6.03746094 8.3125 5.6875 C7.51521484 5.32849609 6.71792969 4.96949219 5.89648438 4.59960938 C3.93698679 3.71959549 1.96925513 2.85795656 0 2 C0 1.34 0 0.68 0 0 Z " transform="translate(657,45)" style="fill: #FEFEFE;"/><path d="M0 0 C14.38621279 -0.0701083 28.77239906 -0.12279757 43.15874767 -0.15543652 C49.83872822 -0.1711006 56.51857182 -0.19235269 63.19848633 -0.22631836 C69.64347271 -0.25888485 76.08834872 -0.27684743 82.53341103 -0.28463173 C84.99382579 -0.29018007 87.45423443 -0.30101443 89.91460228 -0.31719017 C93.35750824 -0.33892792 96.79995651 -0.34196839 100.24291992 -0.34057617 C101.26287552 -0.351362 102.28283112 -0.36214783 103.33369446 -0.3732605 C112.06931066 -0.33496977 112.06931066 -0.33496977 116 3 C119.03288862 9.06577724 116.29795192 17.50889423 114.953125 23.78125 C114.74065125 24.79417114 114.52817749 25.80709229 114.30926514 26.85070801 C113.85936363 28.98288386 113.40528738 31.11418264 112.94726562 33.24462891 C112.25276354 36.48709767 111.57877357 39.73337945 110.90625 42.98046875 C110.46477949 45.06015898 110.02211073 47.13959528 109.578125 49.21875 C109.28098602 50.66127136 109.28098602 50.66127136 108.97784424 52.13293457 C105.99359761 65.78559978 105.99359761 65.78559978 101.3665657 69.20827103 C95.87522643 72.0612733 91.31815314 72.55448825 85.1875 72.45410156 C83.76660316 72.45497772 83.76660316 72.45497772 82.31700134 72.45587158 C79.21095099 72.45310269 76.10588104 72.42206709 73 72.390625 C70.83667525 72.38315837 68.67334371 72.37746743 66.51000977 72.37347412 C60.83487045 72.35825115 55.16014502 72.31899786 49.48516846 72.2746582 C43.68678383 72.23363357 37.88833189 72.21544775 32.08984375 72.1953125 C20.72638133 72.15250057 9.36322518 72.08428955 -2 72 C-1.85577714 70.43564614 -1.70797625 68.87162196 -1.55873108 67.30773926 C-1.47682054 66.43673836 -1.39490999 65.56573746 -1.31051731 64.66834259 C-0.81039436 60.37067762 0.12336883 56.1874621 1.06640625 51.96875 C1.47356351 50.08729501 1.88045657 48.20578283 2.28710938 46.32421875 C2.92411521 43.40749302 3.56437031 40.49155221 4.2097168 37.57666016 C4.83763341 34.73007291 5.45269461 31.88092851 6.06640625 29.03125 C6.26013321 28.17366089 6.45386017 27.31607178 6.65345764 26.43249512 C9.06785479 15.41342582 9.06785479 15.41342582 6 5 C4.03081154 3.62156808 2.03335209 2.28189588 0 1 C0 0.67 0 0.34 0 0 Z M42 17 C40.68 22.919375 39.36 28.83875 38 34.9375 C37.58234375 36.80784912 37.1646875 38.67819824 36.734375 40.60522461 C36.40616607 42.07924564 36.07803561 43.55328414 35.75 45.02734375 C35.49089844 46.18562683 35.49089844 46.18562683 35.2265625 47.36730957 C34.37042768 50.65312173 34.37042768 50.65312173 34 54 C47.2 54 60.4 54 74 54 C76.49838397 47.33764275 78.22226598 41.26292788 79.6875 34.375 C79.91244141 33.364375 80.13738281 32.35375 80.36914062 31.3125 C80.58119141 30.33023438 80.79324219 29.34796875 81.01171875 28.3359375 C81.20209717 27.45470215 81.39247559 26.5734668 81.58862305 25.66552734 C82.15252651 22.46121477 82.15252651 22.46121477 82 17 C68.8 17 55.6 17 42 17 Z " transform="translate(538,45)" style="fill: #FEFEFE;"/><path d="M0 0 C36.63 0 73.26 0 111 0 C108.70247934 11.48760331 108.70247934 11.48760331 105 16 C102.29710692 17.35144654 100.19930194 17.11975165 97.17333984 17.11352539 C95.95222504 17.11344986 94.73111023 17.11337433 93.47299194 17.11329651 C92.13564005 17.10818952 90.79828857 17.10297352 89.4609375 17.09765625 C88.09616141 17.0957914 86.73138466 17.09436781 85.36660767 17.09336853 C81.77284907 17.08954863 78.17913083 17.07972283 74.58538818 17.06866455 C70.91891018 17.05843911 67.25242565 17.05386848 63.5859375 17.04882812 C56.39060659 17.0381001 49.19530895 17.02102999 42 17 C41.67 20.3 41.34 23.6 41 27 C43.4598938 26.97643433 43.4598938 26.97643433 45.96948242 26.95239258 C52.05423063 26.89808943 58.13895741 26.86364814 64.22387695 26.83520508 C66.85737714 26.82011943 69.49085221 26.79964834 72.12426758 26.77368164 C75.90973104 26.73728981 79.69486227 26.7202711 83.48046875 26.70703125 C84.65772018 26.69154739 85.83497162 26.67606354 87.04789734 26.66011047 C88.69904289 26.65977058 88.69904289 26.65977058 90.38354492 26.65942383 C91.34951096 26.65276199 92.31547699 26.64610016 93.31071472 26.63923645 C96.54214304 27.07272767 98.38177238 28.08153824 101 30 C104.31424348 34.97136522 103.14904014 39.67585189 102.046875 45.28515625 C101.62262539 47.21272513 101.19013975 49.13849727 100.75 51.0625 C100.54503906 52.02994141 100.34007812 52.99738281 100.12890625 53.99414062 C98.6629999 60.48410784 97.03965804 65.2453099 92 69.8125 C87.46021163 72.50799934 82.60327753 72.13636265 77.46777344 72.11352539 C76.60887512 72.11367142 75.74997681 72.11381744 74.86505127 72.1139679 C72.02980004 72.11327196 69.19461474 72.10549445 66.359375 72.09765625 C64.39211055 72.09579094 62.42484564 72.09436757 60.45758057 72.09336853 C55.28233556 72.08955227 50.10711867 72.07972956 44.93188477 72.06866455 C39.64990621 72.0584313 34.36792311 72.0538668 29.0859375 72.04882812 C18.72394599 72.03810651 8.36197533 72.02104075 -2 72 C-1.72667175 70.24052007 -1.44028118 68.4830662 -1.1484375 66.7265625 C-0.99036621 65.74768066 -0.83229492 64.76879883 -0.66943359 63.76025391 C0.32994435 59.63955113 1.87131412 57.8307158 5 55 C8.20379913 53.87410781 11.31095356 53.84695426 14.68652344 53.79467773 C15.82740417 53.77473251 16.96828491 53.75478729 18.14373779 53.73423767 C19.36989807 53.71752518 20.59605835 53.70081268 21.859375 53.68359375 C23.11888977 53.66281265 24.37840454 53.64203156 25.67608643 53.62062073 C29.01658871 53.56633698 32.35710222 53.51607931 35.69769287 53.46777344 C39.10971393 53.41744296 42.52164823 53.3618173 45.93359375 53.30664062 C52.62232664 53.19954886 59.31112463 53.0977646 66 53 C66.33 50.36 66.66 47.72 67 45 C65.96429619 44.99786247 65.96429619 44.99786247 64.90766907 44.99568176 C57.72100095 44.97599509 50.53518335 44.92174259 43.34887695 44.84741211 C40.66683387 44.82143984 37.98514307 44.80771779 35.30297852 44.80444336 C31.44749939 44.7951668 27.59345998 44.75419944 23.73828125 44.70703125 C21.93959343 44.71293022 21.93959343 44.71293022 20.10456848 44.71894836 C10.8304799 44.5564088 10.8304799 44.5564088 7.72924805 41.66699219 C4.84886479 37.22462218 5.70608781 33.55178637 6.65625 28.53515625 C6.9346875 27.38917969 7.213125 26.24320313 7.5 25.0625 C9.62798434 16.0966317 9.62798434 16.0966317 7.875 7.25 C5.58888964 4.50666756 3.01757655 2.87760318 0 1 C0 0.67 0 0.34 0 0 Z " transform="translate(72,45)" style="fill: #FFFEFF;"/><path d="M0 0 C35.97 0 71.94 0 109 0 C106.7260274 12.50684932 106.7260274 12.50684932 103 16 C100.35579883 17.32210059 98.31800385 17.16122122 95.35693359 17.20532227 C93.58532364 17.2352401 93.58532364 17.2352401 91.77792358 17.26576233 C90.49769318 17.28247482 89.21746277 17.29918732 87.8984375 17.31640625 C86.59170074 17.33718735 85.28496399 17.35796844 83.93862915 17.37937927 C80.463311 17.43459294 76.98793347 17.48400525 73.51251221 17.53222656 C69.966621 17.58244677 66.4208161 17.63813012 62.875 17.69335938 C55.9167415 17.80093228 48.95840504 17.90237917 42 18 C41.34 20.97 40.68 23.94 40 27 C58.81 27 77.62 27 97 27 C95.85087719 38.49122807 95.85087719 38.49122807 93 42 C89.65383108 44.23077928 88.60406041 44.24524037 84.70239258 44.22705078 C83.62149857 44.22689972 82.54060455 44.22674866 81.42695618 44.22659302 C80.26125595 44.21627045 79.09555573 44.20594788 77.89453125 44.1953125 C76.10301888 44.19106766 76.10301888 44.19106766 74.27531433 44.18673706 C70.45427503 44.17552677 66.63346866 44.15042037 62.8125 44.125 C60.22461276 44.11497131 57.63672184 44.10584527 55.04882812 44.09765625 C48.69913904 44.07558465 42.34958616 44.0420986 36 44 C35.67 46.97 35.34 49.94 35 53 C55.46 53.33 75.92 53.66 97 54 C96.34551441 60.54485587 95.71502119 65.82592371 94 72 C82.74300215 72.06951197 71.48605537 72.12281744 60.2288866 72.15543652 C55.00171642 72.17109208 49.77469309 72.19232852 44.54760742 72.22631836 C39.50313053 72.25891546 34.45879489 72.27685384 29.41422081 72.28463173 C27.48968978 72.29017459 25.56516647 72.30099841 23.64069557 72.31719017 C20.94494549 72.33896904 18.24977899 72.34196673 15.55395508 72.34057617 C14.75841721 72.351362 13.96287933 72.36214783 13.14323425 72.3732605 C7.3057576 72.34068023 4.0883095 71.0883095 0 67 C-0.82028064 61.04853059 0.35846671 55.21632179 1.75 49.44921875 C2.11471241 47.84703458 2.47929157 46.24482008 2.84375 44.64257812 C3.41913989 42.16708054 3.99878516 39.69265238 4.58203125 37.21899414 C9.00904241 21.99080117 9.00904241 21.99080117 6.98706055 7.05517578 C5.56494987 5.19841491 5.56494987 5.19841491 3 3 C2.01 2.01 1.02 1.02 0 0 Z " transform="translate(422,45)" style="fill: #FEFEFE;"/><path d="M0 0 C35.97 0 71.94 0 109 0 C107.55215573 11.58275417 107.55215573 11.58275417 103.26141357 15.64668274 C100.37102687 17.37640182 98.48782945 17.36210147 95.12988281 17.34057617 C93.94896057 17.34034958 92.76803833 17.34012299 91.55133057 17.33988953 C90.28142273 17.32440567 89.01151489 17.30892181 87.703125 17.29296875 C86.39921814 17.28872391 85.09531128 17.28447906 83.75189209 17.28010559 C80.29281228 17.26867549 76.83411302 17.23922477 73.37518311 17.20599365 C69.84262235 17.1752528 66.30999984 17.16159172 62.77734375 17.14648438 C55.85140661 17.11435282 48.9257216 17.06317904 42 17 C41.34 20.3 40.68 23.6 40 27 C58.81 27 77.62 27 97 27 C95.8556701 38.44329897 95.8556701 38.44329897 92 43 C89.45061185 44.27469407 87.66959002 44.12016184 84.81591797 44.11352539 C83.73494843 44.11344986 82.65397888 44.11337433 81.54025269 44.11329651 C79.78396042 44.10555458 79.78396042 44.10555458 77.9921875 44.09765625 C76.79643097 44.0962413 75.60067444 44.09482635 74.36868286 44.09336853 C70.53743013 44.08775663 66.70623516 44.07520208 62.875 44.0625 C60.28255293 44.05748653 57.69010494 44.05292336 55.09765625 44.04882812 C48.73174847 44.03778333 42.36588404 44.02051068 36 44 C35.505 48.95 35.505 48.95 35 54 C55.46 54 75.92 54 97 54 C95.875 66.375 95.875 66.375 94 72 C82.87336398 72.04634281 71.74675092 72.08187915 60.62003803 72.10362434 C55.45344445 72.11406099 50.28691691 72.12821813 45.12036133 72.15087891 C40.13424722 72.17261137 35.14819662 72.18456952 30.1620388 72.18975449 C28.25984891 72.1934495 26.35766249 72.20066491 24.45549965 72.21146011 C21.7909761 72.22598032 19.12671496 72.22797771 16.4621582 72.22705078 C15.2828775 72.23783661 15.2828775 72.23783661 14.07977295 72.24884033 C8.99047978 72.22968589 5.05476452 71.84220267 1.1875 68.375 C-1.70114864 62.59770271 0.31777379 55.45561455 1.71484375 49.44140625 C1.89004044 48.65281723 2.06523712 47.86422821 2.2457428 47.05174255 C2.80171328 44.55346695 3.36870792 42.05788491 3.9375 39.5625 C4.50142649 37.07043362 5.06275901 34.57786404 5.61854553 32.08396912 C5.9629975 30.54008425 6.31213436 28.99723362 6.66697693 27.45570374 C9.45863504 15.92626877 9.45863504 15.92626877 6 5 C2.95202627 2.63297941 2.95202627 2.63297941 0 1 C0 0.67 0 0.34 0 0 Z " transform="translate(306,45)" style="fill: #FEFEFE;"/><path d="M0 0 C13.88196795 -0.0467221 27.7639237 -0.08185691 41.64595413 -0.10362434 C48.09163384 -0.11407053 54.53726081 -0.12824506 60.98291016 -0.15087891 C67.20095083 -0.17257736 73.41894069 -0.18456233 79.6370163 -0.18975449 C82.01172434 -0.19345562 84.38642955 -0.20068282 86.76111603 -0.21146011 C90.08201653 -0.22593505 93.40270594 -0.2279796 96.72363281 -0.22705078 C97.70978073 -0.23424133 98.69592865 -0.24143188 99.71195984 -0.24884033 C100.61777298 -0.246091 101.52358612 -0.24334167 102.45684814 -0.24050903 C103.24221577 -0.24235262 104.02758339 -0.24419621 104.83675003 -0.24609566 C107.30005202 0.03413452 108.89250854 0.71052303 111 2 C114.66415835 7.25604024 112.46619241 14.12967221 111.50537109 20.04541016 C110.94348825 23.14489206 110.32537625 26.22781577 109.6875 29.3125 C109.48705078 30.35728516 109.28660156 31.40207031 109.08007812 32.47851562 C107.73378698 39.03491182 106.43941144 44.4904737 100.76289368 48.63227844 C97.47964444 50.2575928 95.30188051 50.36253636 91.64916992 50.34057617 C89.75777534 50.34023628 89.75777534 50.34023628 87.82817078 50.33988953 C86.46226644 50.32457202 85.09636578 50.30892407 83.73046875 50.29296875 C82.32514398 50.28736912 80.91981333 50.28310075 79.51448059 50.28010559 C75.82691095 50.26868555 72.13969931 50.23924342 68.45227051 50.20599365 C64.68502647 50.17523111 60.91772423 50.16158709 57.15039062 50.14648438 C49.76676439 50.11437048 42.38343248 50.06320917 35 50 C34.896875 51.216875 34.79375 52.43375 34.6875 53.6875 C33.88835672 59.86269809 32.40013104 65.9327655 31 72 C20.11 72 9.22 72 -2 72 C-1.29875 68.473125 -0.5975 64.94625 0.125 61.3125 C0.36259033 60.11544434 0.60018066 58.91838867 0.8449707 57.68505859 C2.07860412 51.50237817 3.34759553 45.32878447 4.66796875 39.1640625 C5.07861572 37.2317981 5.07861572 37.2317981 5.49755859 35.26049805 C6.03158187 32.75532412 6.5720405 30.25151141 7.11962891 27.74926758 C9.71023842 17.04137412 9.71023842 17.04137412 7.3125 6.6875 C5.03320631 4.03859112 3.06400128 2.61711178 0 1 C0 0.67 0 0.34 0 0 Z M42 17 C41.01 22.28 40.02 27.56 39 33 C50.88 33 62.76 33 75 33 C78.36893239 24.47434165 78.36893239 24.47434165 78 17 C66.12 17 54.24 17 42 17 Z " transform="translate(189,45)" style="fill: #FEFFFE;"/><path d="M0 0 C5.76577504 -0.04945571 11.53142646 -0.0857461 17.29736328 -0.10986328 C19.25864818 -0.11991783 21.21991811 -0.13356333 23.18115234 -0.15087891 C26.00101418 -0.17515113 28.82067772 -0.18648859 31.640625 -0.1953125 C32.51680481 -0.20563507 33.39298462 -0.21595764 34.29571533 -0.22659302 C35.11626404 -0.22674408 35.93681274 -0.22689514 36.78222656 -0.22705078 C37.50170471 -0.231492 38.22118286 -0.23593323 38.96246338 -0.24050903 C41.47650158 0.05624583 42.90430811 0.55918369 45 2 C46.50688171 4.36877441 46.50688171 4.36877441 47.90112305 7.32226562 C48.4150058 8.40483643 48.92888855 9.48740723 49.45834351 10.6027832 C51.90232965 15.98838682 54.27439809 21.39833137 56.58203125 26.84375 C57.33150276 28.60193054 57.33150276 28.60193054 58.09611511 30.39562988 C59.14069823 32.8486106 60.1838135 35.3021492 61.22436523 37.75683594 C62.55564774 40.8969128 63.89303595 44.03434617 65.2322588 47.1710434 C66.51852486 50.18566672 67.80011759 53.20227387 69.08203125 56.21875 C69.80070122 57.90309143 69.80070122 57.90309143 70.53388977 59.62145996 C70.97492538 60.66354614 71.415961 61.70563232 71.87036133 62.77929688 C72.25863602 63.69352417 72.64691071 64.60775146 73.04695129 65.54968262 C74 68 74 68 75 72 C62.79 72 50.58 72 38 72 C36 68 36 68 36 65 C30.96367188 64.99466289 25.92965362 65.02832237 20.89379883 65.09765625 C19.18196444 65.11578975 17.46998395 65.12338953 15.75805664 65.12011719 C13.29198787 65.11725216 10.82893176 65.15264101 8.36328125 65.1953125 C7.60163162 65.18621857 6.83998199 65.17712463 6.05525208 65.16775513 C3.57135578 65.17367708 3.57135578 65.17367708 0 66 C-0.82048828 66.99451172 -1.64097656 67.98902344 -2.48632812 69.01367188 C-5 72 -5 72 -6.85054016 72.53317261 C-9.11632353 72.69180934 -11.31244634 72.6756398 -13.58203125 72.5859375 C-14.80329964 72.57320297 -14.80329964 72.57320297 -16.04924011 72.56021118 C-18.63836525 72.52674176 -21.22432381 72.4514836 -23.8125 72.375 C-25.5722205 72.34489164 -27.33199004 72.31751734 -29.09179688 72.29296875 C-33.39574304 72.22697279 -37.69733555 72.12350329 -42 72 C-40.71076019 69.21176763 -39.31380469 67.01003398 -37.27734375 64.71484375 C-36.74334961 64.10729248 -36.20935547 63.49974121 -35.65917969 62.8737793 C-35.09102539 62.23480713 -34.52287109 61.59583496 -33.9375 60.9375 C-29.96140639 56.41428277 -26.03337013 51.87486123 -22.25 47.1875 C-18.72447223 42.83205784 -15.02731534 38.67606258 -11.25390625 34.53515625 C-8.12156124 31.0119467 -5.17162307 27.35288802 -2.22265625 23.67578125 C0.57334287 20.30977177 3.58251527 17.17547312 6.6640625 14.0703125 C8.26455065 12.04138005 8.26455065 12.04138005 7.828125 9.375 C6.79370044 6.40834843 5.33992566 5.06464029 3 3 C1.99520392 2.00481919 0.99430213 1.00566559 0 0 Z M23 38 C21.66370254 39.47648938 20.33103329 40.9562633 19 42.4375 C18.2575 43.26121094 17.515 44.08492187 16.75 44.93359375 C14.89228908 46.67587455 14.89228908 46.67587455 15 48 C19.29 48 23.58 48 28 48 C27.54625 46.535625 27.0925 45.07125 26.625 43.5625 C26.36976563 42.73878906 26.11453125 41.91507813 25.8515625 41.06640625 C25.19117773 38.82201984 25.19117773 38.82201984 23 38 Z " transform="translate(844,45)" style="fill: #FEFEFE;"/><path d="M0 0 C4.80078844 -0.32427388 9.59508245 -0.55843457 14.40429688 -0.71411133 C16.03465829 -0.7790358 17.66427581 -0.86743041 19.29199219 -0.98071289 C32.45755144 -1.87322473 32.45755144 -1.87322473 36.70129395 1.253479 C39.24131483 3.85225989 41.18666893 6.69105568 43.05908203 9.79418945 C44.81097484 12.68778751 46.51133837 14.74179583 49 17 C49.42821045 16.62713867 49.8564209 16.25427734 50.29760742 15.87011719 C52.26001481 14.16238549 54.22374578 12.45618273 56.1875 10.75 C56.86103516 10.16347656 57.53457031 9.57695313 58.22851562 8.97265625 C58.88916016 8.39902344 59.54980469 7.82539062 60.23046875 7.234375 C60.83270264 6.71069336 61.43493652 6.18701172 62.05541992 5.64746094 C62.69713135 5.10379883 63.33884277 4.56013672 64 4 C64.73025391 3.28134766 65.46050781 2.56269531 66.21289062 1.82226562 C69.9132474 -0.59709868 73.09397635 -0.50634803 77.36328125 -0.390625 C78.15526413 -0.38496521 78.94724701 -0.37930542 79.76322937 -0.37347412 C82.28028094 -0.35117308 84.79588243 -0.30099139 87.3125 -0.25 C89.02406791 -0.22992675 90.73565824 -0.21167742 92.44726562 -0.1953125 C96.63206485 -0.15132925 100.815787 -0.08234769 105 0 C97.69264326 7.3361199 89.98220658 14.08199466 81.94140625 20.6015625 C78.64492194 23.28953244 75.37844208 26.01021064 72.125 28.75 C71.58963623 29.19778809 71.05427246 29.64557617 70.50268555 30.10693359 C68.98668476 31.38694304 67.49294772 32.69317573 66 34 C65.15590576 34.71921631 64.31181152 35.43843262 63.44213867 36.17944336 C60.54870118 39.52122916 59.75344474 42.47810612 58.98046875 46.70703125 C58.84789673 47.35071655 58.71532471 47.99440186 58.57873535 48.65759277 C58.09415542 51.03841602 57.64272032 53.42588912 57.1875 55.8125 C56.135625 61.154375 55.08375 66.49625 54 72 C43.11 72 32.22 72 21 72 C22.12131357 61.90817791 22.12131357 61.90817791 23.2265625 57.265625 C23.4534375 56.27949219 23.6803125 55.29335937 23.9140625 54.27734375 C24.39190763 52.24256368 24.87374357 50.20871706 25.359375 48.17578125 C25.58367188 47.19480469 25.80796875 46.21382812 26.0390625 45.203125 C26.24740723 44.32301758 26.45575195 43.44291016 26.67041016 42.53613281 C27.20566628 38.41743606 26.60809654 35.83678242 24.171875 32.484375 C23.37265625 31.58203125 22.5734375 30.6796875 21.75 29.75 C17.32109627 24.64421831 13.1505636 19.38242514 9.0625 14 C8.22960449 12.90510254 8.22960449 12.90510254 7.37988281 11.78808594 C5.91687103 9.86099571 4.45650642 7.93201065 3 6 C2.44755615 5.30519531 1.8951123 4.61039063 1.32592773 3.89453125 C0 2 0 2 0 0 Z " transform="translate(905,45)" style="fill: #FEFEFF;"/><path d="M0 0 C13 0 13 0 17.5625 4.5 C18.65233861 6.0563378 19.73986678 7.61490362 20.78417969 9.20214844 C22.12470372 11.18440125 23.55126334 13.07802601 25.0078125 14.9765625 C30.27032644 21.83756002 35.19364086 28.79046129 40 36 C40.33 24.12 40.66 12.24 41 0 C44.96 0 48.92 0 53 0 C53 18.81 53 37.62 53 57 C40 57 40 57 36.59765625 54.1328125 C35.70922466 52.82532202 34.86559621 51.48657207 34.0625 50.125 C33.09178103 48.66450843 32.11767469 47.206264 31.140625 45.75 C30.39135742 44.59371094 30.39135742 44.59371094 29.62695312 43.4140625 C26.74941595 39.14439149 23.51301768 35.15473714 20.3125 31.125 C19.11867693 29.6086705 17.92708105 28.09058343 16.73828125 26.5703125 C16.23337158 25.92852051 15.72846191 25.28672852 15.20825195 24.62548828 C14 23 14 23 13 21 C12.67 32.88 12.34 44.76 12 57 C8.04 57 4.08 57 0 57 C0 38.19 0 19.38 0 0 Z " transform="translate(872,153)" style="fill: #FFFFFE;"/><path d="M0 0 C13 0 13 0 15.96484375 1.95703125 C16.61582031 2.89933594 17.26679687 3.84164062 17.9375 4.8125 C18.31463135 5.33005859 18.6917627 5.84761719 19.08032227 6.38085938 C19.93052587 7.55466931 20.76213927 8.74209199 21.578125 9.93994141 C23.20607693 12.29857094 24.9088273 14.5915158 26.625 16.88671875 C29.62372417 20.90098529 32.58949116 24.93726249 35.53295898 28.9921875 C37.00521791 31.0071413 38.5026922 33.0035896 40 35 C40.33 23.45 40.66 11.9 41 0 C44.96 0 48.92 0 53 0 C53 18.81 53 37.62 53 57 C40 57 40 57 36.45703125 53.95703125 C35.53168074 52.6044936 34.65114849 51.22044189 33.8125 49.8125 C32.82943003 48.34027357 31.84503413 46.86893174 30.859375 45.3984375 C30.38435547 44.65819336 29.90933594 43.91794922 29.41992188 43.15527344 C27.30532186 39.94556076 24.94635902 36.94947406 22.5625 33.9375 C19.26021559 29.6853199 16.13557866 25.38981012 13 21 C12.67 32.88 12.34 44.76 12 57 C8.04 57 4.08 57 0 57 C0 38.19 0 19.38 0 0 Z " transform="translate(744,153)" style="fill: #FEFEFE;"/><path d="M0 0 C3.25106352 2.42712986 6.28599435 4.97802207 9 8 C9 8.66 9 9.32 9 10 C7.609375 11.32421875 7.609375 11.32421875 5.75 12.6875 C5.14671875 13.14511719 4.5434375 13.60273438 3.921875 14.07421875 C2 15 2 15 -0.0625 14.76953125 C-2 14 -2 14 -4.75 12 C-9.1827899 9.27212929 -13.05577995 8.43401315 -18.11328125 9.40625 C-23.33858593 11.05945374 -25.95795677 13.48302672 -29 18 C-30.82373845 23.61060936 -30.75894902 29.76531678 -28.875 35.3125 C-25.99289127 39.44352251 -23.53497406 42.31815054 -18.6328125 43.63671875 C-12.89761286 44.44731688 -8.92119154 44.11340689 -4 41 C-3.01 39.02 -2.02 37.04 -1 35 C-5.62 35 -10.24 35 -15 35 C-15 31.7 -15 28.4 -15 25 C-6.09 25 2.82 25 12 25 C12 34.37590067 10.95852629 41.87624156 4.8359375 49.23828125 C-0.86657062 54.71026244 -6.69060201 56.31821005 -14.5 56.5625 C-23.35732314 56.2146293 -29.75870287 54.3721574 -36.375 48.375 C-43.38341172 40.6430478 -44.69316631 32.8313047 -44.3828125 22.55859375 C-43.54809856 14.79916111 -39.96980485 8.08445244 -34 3 C-23.6457116 -3.32397994 -11.22917794 -6.04038672 0 0 Z " transform="translate(275,155)" style="fill: #FFFEFF;"/><path d="M0 0 C1.62890625 1.5 1.62890625 1.5 3.62890625 4.5 C2.55997407 5.53590338 1.47312137 6.55333942 0.37890625 7.5625 C-0.224375 8.13097656 -0.82765625 8.69945312 -1.44921875 9.28515625 C-3.37109375 10.5 -3.37109375 10.5 -5.43359375 10.30859375 C-7.37109375 9.5 -7.37109375 9.5 -10.12109375 7.5 C-14.55388365 4.77212929 -18.4268737 3.93401315 -23.484375 4.90625 C-28.7120924 6.56021709 -31.28874441 9.01658278 -34.37109375 13.5 C-36.37360808 19.50754298 -36.35056895 26.2036305 -33.68359375 32 C-31.71483808 35.33121634 -30.09051056 37.12543292 -26.37109375 38.5 C-21.58697893 39.53330371 -17.06145839 40.09580884 -12.37109375 38.4375 C-8.67383649 36.49279395 -8.67383649 36.49279395 -7.37109375 30.5 C-11.66109375 30.5 -15.95109375 30.5 -20.37109375 30.5 C-20.37109375 27.2 -20.37109375 23.9 -20.37109375 20.5 C-11.79109375 20.5 -3.21109375 20.5 5.62890625 20.5 C7.06684068 27.68967217 5.93946043 34.56509752 1.95703125 40.8359375 C-2.27894772 46.14336997 -6.75216371 49.77580958 -13.37109375 51.5 C-23.54649463 52.53682995 -32.49845469 51.46460316 -40.74609375 45.125 C-47.81006559 38.06102816 -50.22651328 30.30255601 -50.37109375 20.5 C-49.65669551 11.74200672 -46.46618593 5.06972349 -39.93359375 -0.8125 C-27.47402261 -10.7585351 -12.21024725 -9.47219181 0 0 Z " transform="translate(1003.37109375,159.5)" style="fill: #FEFEFF;"/><path d="M0 0 C4.29 0 8.58 0 13 0 C13 7.59 13 15.18 13 23 C20.59 23 28.18 23 36 23 C36 15.41 36 7.82 36 0 C40.29 0 44.58 0 49 0 C49 18.81 49 37.62 49 57 C44.71 57 40.42 57 36 57 C36 49.41 36 41.82 36 34 C28.41 34 20.82 34 13 34 C13 41.59 13 49.18 13 57 C8.71 57 4.42 57 0 57 C0 38.19 0 19.38 0 0 Z " transform="translate(314,153)" style="fill: #FEFFFE;"/><path d="M0 0 C28.76470588 0 28.76470588 0 36 6 C39.27961377 11.04992432 38.80433593 17.24375244 38 23 C36.51258996 26.01959162 34.82796469 28.15967591 32 30 C30.33982136 30.36427431 28.6731533 30.70092321 27 31 C27.42410156 31.68102783 27.84820313 32.36205566 28.28515625 33.0637207 C30.19702713 36.14241059 32.09860895 39.22732784 34 42.3125 C34.66773438 43.38435547 35.33546875 44.45621094 36.0234375 45.56054688 C36.65507813 46.58857422 37.28671875 47.61660156 37.9375 48.67578125 C38.52402344 49.62364502 39.11054687 50.57150879 39.71484375 51.5480957 C41 54 41 54 41 57 C28.64509195 58.20372582 28.64509195 58.20372582 25.23828125 55.7109375 C23.92466031 53.54461524 22.99177183 51.33318526 22 49 C21.00370185 47.18164191 19.96533162 45.39234788 18.91625977 43.60400391 C17.25044691 40.7516345 15.62989906 37.87304242 14 35 C13.67 42.26 13.34 49.52 13 57 C8.71 57 4.42 57 0 57 C0 38.19 0 19.38 0 0 Z M13 10 C13 14.62 13 19.24 13 24 C19.89784202 24.29509221 19.89784202 24.29509221 25 21 C26.04842518 18.27409452 26.13212907 16.66064537 25.5625 13.8125 C23.05854927 10.90791715 19.6904471 10.55539402 16 10 C15.01 10 14.02 10 13 10 Z " transform="translate(559,153)" style="fill: #FFFFFF;"/><path d="M0 0 C4.95 0 9.9 0 15 0 C17.51327928 6.50860184 20.02165033 13.01906659 22.52563477 19.53125 C23.37685073 21.74302268 24.22936913 23.95429459 25.08325195 26.16503906 C26.31550382 29.35608943 27.54294773 32.54895471 28.76953125 35.7421875 C29.14777542 36.71864227 29.52601959 37.69509705 29.91572571 38.70114136 C32.2276378 44.73675018 34.21347349 50.78792858 36 57 C31.05 57 26.1 57 21 57 C19.02 51.555 19.02 51.555 17 46 C10.07 45.67 3.14 45.34 -4 45 C-4.66 47.97 -5.32 50.94 -6 54 C-6.33 54.99 -6.66 55.98 -7 57 C-11.62 57 -16.24 57 -21 57 C-20.25910218 53.2955109 -19.48131983 50.3427974 -18.15820312 46.87426758 C-17.78111206 45.88006302 -17.404021 44.88585846 -17.01550293 43.86152649 C-16.60819946 42.79991806 -16.200896 41.73830963 -15.78125 40.64453125 C-15.36331177 39.54654709 -14.94537354 38.44856293 -14.51477051 37.31730652 C-13.63228225 35.00096018 -12.74791999 32.68532705 -11.86181641 30.37036133 C-10.50162502 26.8167455 -9.14678781 23.26112589 -7.79296875 19.70507812 C-6.93520538 17.45561111 -6.07714277 15.20625817 -5.21875 12.95703125 C-4.81144653 11.88935013 -4.40414307 10.82166901 -3.98449707 9.72163391 C-3.60740601 8.73688583 -3.23031494 7.75213776 -2.84179688 6.73754883 C-2.50950073 5.86882645 -2.17720459 5.00010406 -1.83483887 4.10505676 C-1 2 -1 2 0 0 Z M6 15 C4.02 21.6 2.04 28.2 0 35 C4.62 35 9.24 35 14 35 C13.0508584 31.85111828 12.09123496 28.70613421 11.125 25.5625 C10.72087891 24.21575195 10.72087891 24.21575195 10.30859375 22.84179688 C10.04433594 21.98779297 9.78007813 21.13378906 9.5078125 20.25390625 C9.26691895 19.46314697 9.02602539 18.6723877 8.77783203 17.85766602 C8.15628278 15.80635008 8.15628278 15.80635008 6 15 Z " transform="translate(640,153)" style="fill: #FFFFFF;"/><path d="M0 0 C11.22 0 22.44 0 34 0 C34 3.63 34 7.26 34 11 C27.07 11 20.14 11 13 11 C13 14.63 13 18.26 13 22 C19.93 22 26.86 22 34 22 C34 25.63 34 29.26 34 33 C27.07 33 20.14 33 13 33 C13 40.92 13 48.84 13 57 C8.71 57 4.42 57 0 57 C0 38.19 0 19.38 0 0 Z " transform="translate(70,153)" style="fill: #FEFEFF;"/><path d="M0 0 C13.2 0 26.4 0 40 0 C40 3.63 40 7.26 40 11 C35.71 11 31.42 11 27 11 C27 26.18 27 41.36 27 57 C22.71 57 18.42 57 14 57 C14 41.82 14 26.64 14 11 C9.38 11 4.76 11 0 11 C0 7.37 0 3.74 0 0 Z " transform="translate(493,153)" style="fill: #FFFEFE;"/><path d="M0 0 C13.2 0 26.4 0 40 0 C40 3.63 40 7.26 40 11 C35.38 11 30.76 11 26 11 C26 26.18 26 41.36 26 57 C22.04 57 18.08 57 14 57 C14 41.82 14 26.64 14 11 C9.38 11 4.76 11 0 11 C0 7.37 0 3.74 0 0 Z " transform="translate(389,153)" style="fill: #FFFFFF;"/><path d="M0 0 C3.96 0 7.92 0 12 0 C12 15.18 12 30.36 12 46 C18.27 46 24.54 46 31 46 C31 49.63 31 53.26 31 57 C20.77 57 10.54 57 0 57 C0 38.19 0 19.38 0 0 Z " transform="translate(132,153)" style="fill: #FFFFFF;"/><path d="M0 0 C4.29 0 8.58 0 13 0 C13 18.81 13 37.62 13 57 C8.71 57 4.42 57 0 57 C0 38.19 0 19.38 0 0 Z " transform="translate(828,153)" style="fill: #FFFFFF;"/><path d="M0 0 C4.29 0 8.58 0 13 0 C13 18.81 13 37.62 13 57 C8.71 57 4.42 57 0 57 C0 38.19 0 19.38 0 0 Z " transform="translate(700,153)" style="fill: #FFFEFE;"/><path d="M0 0 C4.29 0 8.58 0 13 0 C13 18.81 13 37.62 13 57 C8.71 57 4.42 57 0 57 C0 38.19 0 19.38 0 0 Z " transform="translate(189,153)" style="fill: #FFFFFF;"/></svg>