<?xml version="1.0" encoding="UTF-8" standalone="no"?>
<svg
   width="629"
   height="700"
   viewBox="0 0 629 700"
   fill="none"
   version="1.1"
   id="svg49"
   xmlns="http://www.w3.org/2000/svg"
   xmlns:svg="http://www.w3.org/2000/svg">
  <g
     clip-path="url(#clip0_432_638)"
     id="g49">
    <mask
       id="mask0_432_638"
       style="mask-type:luminance"
       maskUnits="userSpaceOnUse"
       x="0"
       y="0"
       width="629"
       height="700">
      <path
         d="M629 0H0V700H629V0Z"
         fill="white"
         id="path1" />
    </mask>
    <path
       style="fill:#ffffff;stroke-width:4;stroke-linecap:round;stroke-linejoin:round;paint-order:stroke markers fill"
       d="M 313.78125,697.53125 418.38504,587.27626 626.766,574.999 627.40259,461.32088 521.6434,439.52872 580.88822,158.03837 314.375,7.25 48.5,157.125 109.064,441.017 1.90625,460.9375 1.87401,573.493 l 21.629865,2.68844 54.664753,3.08992 130.954592,6.4194 L 312.375,691.5 Z"
       id="path50" />
    <g
       mask="url(#mask0_432_638)"
       id="g48">
      <mask
         id="mask1_432_638"
         style="mask-type:luminance"
         maskUnits="userSpaceOnUse"
         x="0"
         y="0"
         width="629"
         height="700">
        <path
           d="M629 0H0V700H629V0Z"
           fill="white"
           id="path2" />
      </mask>
      <g
         mask="url(#mask1_432_638)"
         id="g47">
        <path
           d="M313.852 14.7575L573.259 161.334L512.7 438.663C512.901 438.698 513.111 438.733 513.313 438.768C517.439 439.381 521.53 439.206 525.533 440.169L587.844 154.822L313.852 0L39.859 154.813L102.521 441.744C102.897 441.718 103.283 441.709 103.66 441.683C103.835 441.604 104.019 441.525 104.212 441.464C105.28 441.097 106.462 440.991 107.593 440.965C107.873 440.965 109.204 440.965 109.064 441.017C111.079 440.807 112.945 439.967 115.039 440.169C115.074 440.169 115.109 440.186 115.153 440.186C115.214 440.177 115.275 440.169 115.337 440.16L54.4441 161.334L313.852 14.7575Z"
           fill="#003366"
           id="path3" />
        <path
           d="M448.075 538.464L313.843 681.234L180.188 539.077C179.182 539.191 178.174 539.304 177.175 539.436C173.575 539.9 169.186 541.274 165.042 541.729L313.843 700L462.486 541.904C457.738 540.932 452.911 539.584 448.075 538.473V538.464Z"
           fill="#003366"
           id="path4" />
        <path
           d="M313.852 36.3158L557.447 173.956L500.155 436.326C501.566 436.554 502.976 436.807 504.378 437.088L562.317 171.785L313.852 31.3969L66.7698 171.007L65.3945 171.785L123.475 437.744C123.597 437.691 123.711 437.639 123.843 437.587C124.921 437.184 126.059 437.018 127.207 436.982C127.374 436.982 127.54 436.982 127.706 436.991L70.2565 173.956L313.852 36.3158Z"
           fill="#003366"
           id="path5" />
        <path
           d="M434.839 536.512C433.612 536.478 432.623 536.101 431.834 535.524L313.843 661.015L196.798 536.521C195.195 536.959 193.575 537.309 191.928 537.598L313.843 667.264L436.687 536.599C436.065 536.556 435.452 536.521 434.83 536.504L434.839 536.512Z"
           fill="#003366"
           id="path6" />
        <g
           opacity="0.7"
           id="g7">
          <path
             d="M502.95 295.254C491.123 283.376 477.772 273.547 461.207 269.276C452.955 267.149 449.915 262.011 449.548 254.002C449.126 244.908 446.087 236.295 437.905 231.769C424.397 224.294 410.556 217.213 396.25 211.472C385.44 207.13 373.675 205.152 361.104 201.79C362.927 197.991 364.67 194.885 365.913 191.593C366.632 189.676 367.017 187.34 366.588 185.413C366.431 184.705 362.462 183.821 361.98 184.425C360.693 186.026 360.106 188.346 359.694 190.473C359.273 192.644 359.816 195.033 359.23 197.134C340.973 261.906 322.63 326.651 304.303 391.397C302.341 398.329 300.37 405.261 298.399 412.194C299.441 412.081 300.466 412.115 301.544 412.255C301.666 412.255 301.78 412.273 301.903 412.282C308.727 388.447 315.525 364.604 322.279 340.752C323.129 337.733 323.865 335.176 327.859 335.903C338.836 337.899 349.961 339.273 360.771 341.926C373.351 345.015 385.58 349.541 398.133 352.77C404.09 354.302 408.146 357.374 411.055 362.46C414.235 368.036 417.275 373.707 420.595 379.195C426.157 388.377 433.63 395.17 444.37 397.926C448.566 399.003 452.771 400.281 456.704 402.049C465.368 405.944 473.103 410.934 476.528 420.606C477.239 422.601 479.113 424.177 481.031 426.724C483.607 407.888 485.709 390.487 488.408 373.183C491.421 353.838 493.69 334.362 506.191 317.776C512.621 309.242 511.298 303.614 502.976 295.254H502.95ZM441.129 286.581C443.328 279.114 446.148 271.832 448.715 264.409C455.408 268.138 456.915 273.206 454.873 280.13C452.85 286.974 451.65 294.073 449.977 301.583C438.404 296.647 438.194 296.585 441.138 286.581H441.129ZM397.441 213.082C406.999 217.66 415.996 221.721 424.695 226.342C426.394 227.244 427.647 230.194 427.936 232.347C429.136 241.503 426.061 249.853 421.857 257.757C421.261 258.869 418.282 259.805 417.021 259.297C407.866 255.63 398.878 251.578 389.584 247.533C392.326 235.498 394.788 224.697 397.441 213.073V213.082ZM432.929 306.66C428.576 302.564 424.151 298.301 419.596 294.186C416.898 291.754 415.89 289.267 417.029 285.504C419.132 278.528 420.647 271.377 422.452 264.137C436.757 274.283 440.393 290.047 432.92 306.66H432.929ZM351.021 242.658C351.398 241.503 353.456 239.892 354.438 240.085C365.257 242.159 376.014 244.54 387.025 246.895C383.005 257.336 379.72 266.396 375.909 275.237C375.217 276.83 372.072 278.668 370.478 278.344C361.28 276.497 352.212 274.029 342.191 271.552C345.371 261.022 348.061 251.796 351.03 242.658H351.021ZM357.618 338.459C346.869 336.787 336.129 335.116 324.872 333.365C327.588 323.815 330.145 314.843 332.554 306.388C344.031 307.736 354.762 308.996 365.292 310.231C362.506 320.48 360.141 329.164 357.618 338.459ZM369.014 310.179C370.819 301.661 372.492 293.898 374.096 286.117C374.858 282.396 377.223 281.53 380.482 282.502C390.907 285.609 401.305 288.803 411.493 291.894C409.259 301.408 407.069 310.713 404.695 320.787C392.921 317.286 381.148 313.776 369.014 310.17V310.179ZM426.683 357.12C425.255 363.703 423.784 370.276 422.356 376.745C416.863 368.43 410.941 359.448 404.397 349.532C405.414 342.503 406.684 333.636 408.067 324.078C417.783 331.072 423.626 340.542 427.691 351.203C428.304 352.814 427.121 355.142 426.692 357.12H426.683ZM433.551 330.196L435.566 329.234C436.372 331.22 438.08 333.33 437.817 335.168C436.705 343.081 435.014 350.915 433.349 359.738C432.15 358.197 429.837 356.569 429.977 355.204C430.853 346.836 432.299 338.529 433.542 330.196H433.551ZM455.837 397.848C435.426 397.314 427.603 388.019 435.662 364.674C442.942 366.687 450.292 368.543 457.493 370.854C458.877 371.3 460.76 373.734 460.559 374.951C459.289 382.583 457.492 390.137 455.837 397.848ZM462.065 336.823C455.303 335.125 448.654 332.988 441.155 330.774C444.37 321.504 447.261 313.172 450.66 303.36C459.595 306.564 468.329 309.697 477.886 313.119C473.927 321.172 470.563 328.385 466.779 335.361C466.201 336.429 463.476 337.181 462.057 336.823H462.065ZM488.188 361.769C486.717 370.862 484.973 379.914 483.598 387.485C477.912 382.504 471.781 377.287 465.885 371.816C464.65 370.67 463.529 368.517 463.66 366.923C464.326 358.354 465.403 349.821 466.402 340.752C475.775 344.201 482.477 349.313 486.936 357.147C487.706 358.512 488.434 360.324 488.198 361.769H488.188ZM497.308 328.472C492.035 323.457 487.277 319.159 482.844 314.555C481.811 313.487 481.128 311.185 481.522 309.802C483.721 302.134 486.296 294.58 489.231 285.477C494.977 291.438 500.602 296.935 505.796 302.8C508.635 305.994 508.652 309.925 506.358 313.679C503.361 318.581 500.357 323.483 497.308 328.472Z"
             fill="black"
             id="path7" />
        </g>
        <g
           opacity="0.7"
           id="g8">
          <path
             d="M502.95 295.254C491.123 283.376 477.772 273.547 461.207 269.276C452.955 267.149 449.915 262.011 449.548 254.002C449.126 244.908 446.087 236.295 437.905 231.769C424.397 224.294 410.556 217.213 396.25 211.472C385.44 207.13 373.675 205.152 361.104 201.79C362.927 197.991 364.67 194.885 365.913 191.593C366.632 189.676 367.017 187.34 366.588 185.413C366.431 184.705 362.462 183.821 361.98 184.425C360.693 186.026 360.106 188.346 359.694 190.473C359.273 192.644 359.816 195.033 359.23 197.134C340.973 261.906 322.63 326.651 304.303 391.397C302.341 398.329 300.37 405.261 298.399 412.194C299.441 412.081 300.466 412.115 301.544 412.255C301.666 412.255 301.78 412.273 301.903 412.282C308.727 388.447 315.525 364.604 322.279 340.752C323.129 337.733 323.865 335.176 327.859 335.903C338.836 337.899 349.961 339.273 360.771 341.926C373.351 345.015 385.58 349.541 398.133 352.77C404.09 354.302 408.146 357.374 411.055 362.46C414.235 368.036 417.275 373.707 420.595 379.195C426.157 388.377 433.63 395.17 444.37 397.926C448.566 399.003 452.771 400.281 456.704 402.049C465.368 405.944 473.103 410.934 476.528 420.606C477.239 422.601 479.113 424.177 481.031 426.724C483.607 407.888 485.709 390.487 488.408 373.183C491.421 353.838 493.69 334.362 506.191 317.776C512.621 309.242 511.298 303.614 502.976 295.254H502.95ZM441.129 286.581C443.328 279.114 446.148 271.832 448.715 264.409C455.408 268.138 456.915 273.206 454.873 280.13C452.85 286.974 451.65 294.073 449.977 301.583C438.404 296.647 438.194 296.585 441.138 286.581H441.129ZM397.441 213.082C406.999 217.66 415.996 221.721 424.695 226.342C426.394 227.244 427.647 230.194 427.936 232.347C429.136 241.503 426.061 249.853 421.857 257.757C421.261 258.869 418.282 259.805 417.021 259.297C407.866 255.63 398.878 251.578 389.584 247.533C392.326 235.498 394.788 224.697 397.441 213.073V213.082ZM432.929 306.66C428.576 302.564 424.151 298.301 419.596 294.186C416.898 291.754 415.89 289.267 417.029 285.504C419.132 278.528 420.647 271.377 422.452 264.137C436.757 274.283 440.393 290.047 432.92 306.66H432.929ZM351.021 242.658C351.398 241.503 353.456 239.892 354.438 240.085C365.257 242.159 376.014 244.54 387.025 246.895C383.005 257.336 379.72 266.396 375.909 275.237C375.217 276.83 372.072 278.668 370.478 278.344C361.28 276.497 352.212 274.029 342.191 271.552C345.371 261.022 348.061 251.796 351.03 242.658H351.021ZM357.618 338.459C346.869 336.787 336.129 335.116 324.872 333.365C327.588 323.815 330.145 314.843 332.554 306.388C344.031 307.736 354.762 308.996 365.292 310.231C362.506 320.48 360.141 329.164 357.618 338.459ZM369.014 310.179C370.819 301.661 372.492 293.898 374.096 286.117C374.858 282.396 377.223 281.53 380.482 282.502C390.907 285.609 401.305 288.803 411.493 291.894C409.259 301.408 407.069 310.713 404.695 320.787C392.921 317.286 381.148 313.776 369.014 310.17V310.179ZM426.683 357.12C425.255 363.703 423.784 370.276 422.356 376.745C416.863 368.43 410.941 359.448 404.397 349.532C405.414 342.503 406.684 333.636 408.067 324.078C417.783 331.072 423.626 340.542 427.691 351.203C428.304 352.814 427.121 355.142 426.692 357.12H426.683ZM433.551 330.196L435.566 329.234C436.372 331.22 438.08 333.33 437.817 335.168C436.705 343.081 435.014 350.915 433.349 359.738C432.15 358.197 429.837 356.569 429.977 355.204C430.853 346.836 432.299 338.529 433.542 330.196H433.551ZM455.837 397.848C435.426 397.314 427.603 388.019 435.662 364.674C442.942 366.687 450.292 368.543 457.493 370.854C458.877 371.3 460.76 373.734 460.559 374.951C459.289 382.583 457.492 390.137 455.837 397.848ZM462.065 336.823C455.303 335.125 448.654 332.988 441.155 330.774C444.37 321.504 447.261 313.172 450.66 303.36C459.595 306.564 468.329 309.697 477.886 313.119C473.927 321.172 470.563 328.385 466.779 335.361C466.201 336.429 463.476 337.181 462.057 336.823H462.065ZM488.188 361.769C486.717 370.862 484.973 379.914 483.598 387.485C477.912 382.504 471.781 377.287 465.885 371.816C464.65 370.67 463.529 368.517 463.66 366.923C464.326 358.354 465.403 349.821 466.402 340.752C475.775 344.201 482.477 349.313 486.936 357.147C487.706 358.512 488.434 360.324 488.198 361.769H488.188ZM497.308 328.472C492.035 323.457 487.277 319.159 482.844 314.555C481.811 313.487 481.128 311.185 481.522 309.802C483.721 302.134 486.296 294.58 489.231 285.477C494.977 291.438 500.602 296.935 505.796 302.8C508.635 305.994 508.652 309.925 506.358 313.679C503.361 318.581 500.357 323.483 497.308 328.472Z"
             fill="black"
             id="path8" />
        </g>
        <g
           opacity="0.7"
           id="g9">
          <path
             d="M328.902 412.395C329.585 412.291 330.242 412.282 330.881 412.395C331.074 412.395 331.267 412.387 331.469 412.395C331.67 412.404 331.872 412.439 332.064 412.475C311.697 340.718 291.312 268.96 271.005 197.178C270.366 194.928 271.145 192.32 270.734 189.965C270.383 188.005 269.674 185.712 268.299 184.478C267.528 183.785 263.804 184.67 263.638 185.362C263.183 187.287 263.524 189.624 264.243 191.541C265.487 194.841 267.248 197.948 268.999 201.546C265.916 202.508 264.006 203.244 262.026 203.698C241.23 208.574 220.985 214.876 202.036 225.021C189.509 231.726 180.776 240.619 180.417 255.788C180.267 262.413 177.193 266.921 170.176 268.75C153.899 272.996 140.47 282.327 128.565 293.836C118.42 303.649 118.298 308.322 125.341 320.533C129.554 327.833 134.303 335.229 136.44 343.221C139.743 355.545 141.241 368.377 143.081 381.051C145.218 395.738 146.9 410.487 149.046 427.232C151.087 424.536 152.559 423.302 153.111 421.744C157.648 409.052 167.915 402.531 179.873 399.853C196.973 396.018 207.372 385.55 214.572 370.618C215.738 368.193 217.183 365.899 218.409 363.501C222.019 356.429 227.862 353.015 235.667 352.009C241.168 351.291 247.108 350.722 251.89 348.245C267.397 340.219 284.523 339.466 301.045 335.982C304.986 335.151 306.975 336.507 307.982 340.656C310.164 349.681 312.897 358.565 315.446 367.493C319.721 382.486 324.014 397.472 328.315 412.448C328.507 412.422 328.7 412.386 328.902 412.369V412.395ZM275.394 240.146C276.507 239.936 278.819 241.652 279.231 242.912C282.201 251.875 284.82 260.952 288.027 271.561C277.891 274.011 268.439 276.506 258.864 278.37C257.471 278.642 254.676 276.225 253.923 274.466C250.305 265.976 247.169 257.285 243.157 246.842C254.16 244.505 264.742 242.142 275.385 240.155L275.394 240.146ZM202.325 232.522C202.65 230.001 204.804 226.806 207.03 225.599C215.142 221.179 223.648 217.459 232.767 213.108C235.43 224.802 237.919 235.743 240.59 247.49C230.385 252.015 220.328 256.488 210.148 261.004C204.647 251.481 201.047 242.536 202.325 232.522ZM181.213 263.525C184.104 271.963 186.926 279.298 189.115 286.808C192.015 296.734 191.665 297.058 180.995 301.128C176.842 291.806 174.801 281.95 174.749 271.875C174.731 269.407 178.454 266.921 181.213 263.516V263.525ZM133.015 328.394C130.256 324.052 127.461 319.518 124.526 315.072C121.031 309.785 121.933 304.734 125.901 300.454C130.623 295.351 135.906 290.756 141.118 285.767C143.921 294.449 146.506 302.214 148.853 310.047C149.186 311.167 148.801 313.049 148.013 313.855C143.264 318.686 138.297 323.317 133.015 328.385V328.394ZM164.481 371.676C158.48 377.069 152.287 382.242 146.54 387.169C145.218 379.791 142.669 370.618 142.336 361.357C142.196 357.453 146.076 352.753 149.274 349.558C152.962 345.882 157.92 343.484 163.711 339.597C164.797 349.855 165.831 358.582 166.531 367.336C166.646 368.744 165.603 370.67 164.49 371.676H164.481ZM162.922 334.197C159.287 327.754 156.16 321.023 152.314 313.321C161.485 309.872 170.193 306.598 179.418 303.141C182.817 312.883 185.786 321.373 189.072 330.783C181.529 333.007 174.889 335.221 168.1 336.779C166.593 337.129 163.728 335.641 162.913 334.205L162.922 334.197ZM174.301 397.76C172.733 390.233 171.016 382.872 169.799 375.432C169.571 374.075 171.026 371.405 172.243 371.012C179.628 368.622 187.17 366.722 194.651 364.657C202.632 388.806 194.205 397.402 174.31 397.76H174.301ZM196.947 359.772C195.177 350.766 193.373 342.608 192.155 334.362C191.928 332.805 194.074 330.897 195.125 329.146C195.606 329.382 196.097 329.61 196.588 329.838C197.867 338.363 199.303 346.862 200.241 355.422C200.381 356.692 198.174 358.223 196.947 359.764V359.772ZM197.113 306.861C190.175 288.646 193.136 275.631 207.599 263.98C209.781 272.436 212.225 280.541 213.723 288.803C214.047 290.607 211.217 293.259 209.413 295.115C205.558 299.079 201.432 302.774 197.113 306.861ZM207.915 376.683C206.391 370.084 204.489 363.195 203.316 356.193C202.816 353.2 203 349.567 204.271 346.889C208.431 338.153 213.469 329.916 222.15 324.043C223.499 333.488 224.761 342.32 225.812 349.733C219.469 359.282 213.503 368.263 207.906 376.683H207.915ZM225.47 320.813C223.219 311.106 221.073 301.811 218.76 291.841C229.088 288.795 240.021 285.364 251.102 282.563C252.416 282.231 255.693 285.014 256.192 286.852C258.163 294.152 259.381 301.653 261.115 310.231C248.982 313.838 237.209 317.33 225.47 320.813ZM272.722 338.521C270.139 329.339 267.624 320.384 264.777 310.275C275.324 309.023 286.056 307.745 297.663 306.371C300.098 314.94 302.569 323.641 305.311 333.295C294.483 335.028 283.831 336.744 272.722 338.521Z"
             fill="black"
             id="path9" />
        </g>
        <g
           opacity="0.7"
           id="g10">
          <path
             d="M328.902 412.395C329.585 412.291 330.242 412.282 330.881 412.395C331.074 412.395 331.267 412.387 331.469 412.395C331.67 412.404 331.872 412.439 332.064 412.475C311.697 340.718 291.312 268.96 271.005 197.178C270.366 194.928 271.145 192.32 270.734 189.965C270.383 188.005 269.674 185.712 268.299 184.478C267.528 183.785 263.804 184.67 263.638 185.362C263.183 187.287 263.524 189.624 264.243 191.541C265.487 194.841 267.248 197.948 268.999 201.546C265.916 202.508 264.006 203.244 262.026 203.698C241.23 208.574 220.985 214.876 202.036 225.021C189.509 231.726 180.776 240.619 180.417 255.788C180.267 262.413 177.193 266.921 170.176 268.75C153.899 272.996 140.47 282.327 128.565 293.836C118.42 303.649 118.298 308.322 125.341 320.533C129.554 327.833 134.303 335.229 136.44 343.221C139.743 355.545 141.241 368.377 143.081 381.051C145.218 395.738 146.9 410.487 149.046 427.232C151.087 424.536 152.559 423.302 153.111 421.744C157.648 409.052 167.915 402.531 179.873 399.853C196.973 396.018 207.372 385.55 214.572 370.618C215.738 368.193 217.183 365.899 218.409 363.501C222.019 356.429 227.862 353.015 235.667 352.009C241.168 351.291 247.108 350.722 251.89 348.245C267.397 340.219 284.523 339.466 301.045 335.982C304.986 335.151 306.975 336.507 307.982 340.656C310.164 349.681 312.897 358.565 315.446 367.493C319.721 382.486 324.014 397.472 328.315 412.448C328.507 412.422 328.7 412.386 328.902 412.369V412.395ZM275.394 240.146C276.507 239.936 278.819 241.652 279.231 242.912C282.201 251.875 284.82 260.952 288.027 271.561C277.891 274.011 268.439 276.506 258.864 278.37C257.471 278.642 254.676 276.225 253.923 274.466C250.305 265.976 247.169 257.285 243.157 246.842C254.16 244.505 264.742 242.142 275.385 240.155L275.394 240.146ZM202.325 232.522C202.65 230.001 204.804 226.806 207.03 225.599C215.142 221.179 223.648 217.459 232.767 213.108C235.43 224.802 237.919 235.743 240.59 247.49C230.385 252.015 220.328 256.488 210.148 261.004C204.647 251.481 201.047 242.536 202.325 232.522ZM181.213 263.525C184.104 271.963 186.926 279.298 189.115 286.808C192.015 296.734 191.665 297.058 180.995 301.128C176.842 291.806 174.801 281.95 174.749 271.875C174.731 269.407 178.454 266.921 181.213 263.516V263.525ZM133.015 328.394C130.256 324.052 127.461 319.518 124.526 315.072C121.031 309.785 121.933 304.734 125.901 300.454C130.623 295.351 135.906 290.756 141.118 285.767C143.921 294.449 146.506 302.214 148.853 310.047C149.186 311.167 148.801 313.049 148.013 313.855C143.264 318.686 138.297 323.317 133.015 328.385V328.394ZM164.481 371.676C158.48 377.069 152.287 382.242 146.54 387.169C145.218 379.791 142.669 370.618 142.336 361.357C142.196 357.453 146.076 352.753 149.274 349.558C152.962 345.882 157.92 343.484 163.711 339.597C164.797 349.855 165.831 358.582 166.531 367.336C166.646 368.744 165.603 370.67 164.49 371.676H164.481ZM162.922 334.197C159.287 327.754 156.16 321.023 152.314 313.321C161.485 309.872 170.193 306.598 179.418 303.141C182.817 312.883 185.786 321.373 189.072 330.783C181.529 333.007 174.889 335.221 168.1 336.779C166.593 337.129 163.728 335.641 162.913 334.205L162.922 334.197ZM174.301 397.76C172.733 390.233 171.016 382.872 169.799 375.432C169.571 374.075 171.026 371.405 172.243 371.012C179.628 368.622 187.17 366.722 194.651 364.657C202.632 388.806 194.205 397.402 174.31 397.76H174.301ZM196.947 359.772C195.177 350.766 193.373 342.608 192.155 334.362C191.928 332.805 194.074 330.897 195.125 329.146C195.606 329.382 196.097 329.61 196.588 329.838C197.867 338.363 199.303 346.862 200.241 355.422C200.381 356.692 198.174 358.223 196.947 359.764V359.772ZM197.113 306.861C190.175 288.646 193.136 275.631 207.599 263.98C209.781 272.436 212.225 280.541 213.723 288.803C214.047 290.607 211.217 293.259 209.413 295.115C205.558 299.079 201.432 302.774 197.113 306.861ZM207.915 376.683C206.391 370.084 204.489 363.195 203.316 356.193C202.816 353.2 203 349.567 204.271 346.889C208.431 338.153 213.469 329.916 222.15 324.043C223.499 333.488 224.761 342.32 225.812 349.733C219.469 359.282 213.503 368.263 207.906 376.683H207.915ZM225.47 320.813C223.219 311.106 221.073 301.811 218.76 291.841C229.088 288.795 240.021 285.364 251.102 282.563C252.416 282.231 255.693 285.014 256.192 286.852C258.163 294.152 259.381 301.653 261.115 310.231C248.982 313.838 237.209 317.33 225.47 320.813ZM272.722 338.521C270.139 329.339 267.624 320.384 264.777 310.275C275.324 309.023 286.056 307.745 297.663 306.371C300.098 314.94 302.569 323.641 305.311 333.295C294.483 335.028 283.831 336.744 272.722 338.521Z"
             fill="black"
             id="path10" />
        </g>
        <path
           d="M629 574.982L428.54 536.731C352.975 522.315 276.349 522.315 200.793 536.731L0.332886 574.982V459.592L1.63813 459.338L200.188 421.446C276.148 406.951 353.185 406.951 429.145 421.446L629 459.582V574.973V574.982ZM314.666 522.7C352.914 522.7 391.161 526.324 429.145 533.571L625.785 571.095V462.244L428.54 424.606C352.975 410.19 276.349 410.19 200.793 424.606L3.54796 462.244V571.095L200.188 533.571C238.172 526.324 276.419 522.7 314.666 522.7Z"
           fill="#003366"
           id="path11" />
        <path
           d="M219.723 586.211C213.407 585.914 207.1 585.599 200.793 585.24L6.47303 574.263C5.71965 574.386 4.69467 574.377 4.10818 574.15C4.0822 574.15 4.0641 574.132 4.03812 574.123L3.54768 574.097V573.94C3.10053 573.765 2.68014 573.537 2.3125 573.213C2.16371 573.309 2.02359 573.397 1.87401 573.493C1.78663 573.555 1.69059 573.599 1.60242 573.651C1.62052 573.852 1.63784 574.053 1.62918 574.255C1.62918 574.273 1.62918 574.29 1.62918 574.299C2.15427 574.386 2.65416 574.579 3.11784 574.876C3.19735 574.929 3.28474 574.99 3.36346 575.043L200.179 586.168C206.802 586.544 213.442 586.877 220.082 587.184C219.951 586.859 219.829 586.535 219.706 586.203L219.723 586.211Z"
           fill="#C01933"
           id="path12" />
        <path
           d="M220.091 588.794C220.091 588.794 220.039 588.794 220.021 588.794C212.707 588.452 206.189 588.12 200.101 587.778L3.27624 576.654C2.98732 576.636 2.71572 576.54 2.47011 576.382L2.32132 576.277C1.971 576.05 1.67264 575.936 1.35775 575.874C0.657106 575.76 0.122574 575.192 0.0344042 574.492C0.0344042 574.456 0.034403 574.404 0.0257434 574.36C0.0257434 574.299 0.0257434 574.246 0.0257434 574.185C0.0257434 574.054 0.0257468 573.932 0.00842769 573.809C-0.0615574 573.178 0.254044 572.575 0.797235 572.259C0.814554 572.259 0.919257 572.189 0.927916 572.181C1.06883 572.084 1.19085 572.005 1.32232 571.927L1.43647 571.857C2.04972 571.463 2.84641 571.524 3.38094 572.014C3.56515 572.181 3.80132 572.312 4.12566 572.444C4.19572 572.469 4.26579 572.505 4.33585 572.539C4.36262 572.539 4.3886 572.548 4.41458 572.557C4.48464 572.575 4.56415 572.601 4.64287 572.627H4.67751C4.8877 572.724 5.57968 572.767 6.2016 572.662C6.31575 572.645 6.43855 572.635 6.56136 572.645L200.88 583.621C206.653 583.945 212.838 584.269 219.793 584.592C220.451 584.619 221.02 585.047 221.239 585.669C221.344 585.976 221.466 586.282 221.589 586.58C221.791 587.087 221.72 587.665 221.406 588.102C221.099 588.531 220.617 588.776 220.091 588.776V588.794Z"
           fill="#003366"
           id="path13" />
        <path
           d="M625.785 573.519V574.089L428.54 585.232C422.146 585.59 415.741 585.914 409.329 586.211C408.908 586.553 408.479 586.903 408.059 587.236C415.094 586.912 422.128 586.561 429.145 586.159L593.179 576.89C593.582 576.758 594.02 576.662 594.485 576.627C598.558 576.26 602.649 576.163 606.749 576.128L626.766 574.999C626.906 574.886 627.046 574.78 627.186 574.675C626.853 574.282 626.486 573.879 626.109 573.476C626.004 573.493 625.899 573.502 625.785 573.511V573.519Z"
           fill="#C01933"
           id="path14" />
        <path
           d="M408.059 588.855C407.393 588.855 406.788 588.444 406.552 587.814C406.307 587.157 406.517 586.421 407.06 585.993C407.481 585.66 407.901 585.327 408.313 584.986C408.585 584.767 408.908 584.645 409.25 584.627C416.153 584.303 422.426 583.979 428.444 583.638L624.488 572.565C624.76 572.198 625.189 571.953 625.679 571.927C625.75 571.927 625.811 571.918 625.881 571.901C626.398 571.831 626.915 572.014 627.266 572.391C627.668 572.811 628.054 573.239 628.395 573.642C628.684 573.983 628.824 574.439 628.763 574.886C628.702 575.332 628.466 575.734 628.089 575.997C627.984 576.076 627.879 576.154 627.774 576.233C627.511 576.452 627.178 576.584 626.836 576.61L606.819 577.739C603.149 577.774 598.891 577.852 594.607 578.238C594.274 578.264 593.968 578.334 593.652 578.43C593.521 578.474 593.389 578.5 593.249 578.509L429.215 587.778C422.496 588.155 415.593 588.514 408.112 588.855C408.085 588.855 408.059 588.855 408.042 588.855H408.059Z"
           fill="#003366"
           id="path15" />
        <path
           d="M313.852 56.9288L317.987 65.306L327.229 66.6447L320.536 73.1657L322.121 82.3656L313.852 78.024L305.582 82.3656L307.159 73.1657L300.466 66.6447L309.717 65.306L313.852 56.9288Z"
           fill="#003366"
           id="path16" />
        <path
           d="M341.516 325.715C336.83 333.505 332.125 341.322 327.412 349.138C326.265 351.037 324.986 352.858 323.9 354.784C322.472 357.304 320.79 358.074 317.785 357.068C312.687 355.361 307.413 354.162 302.174 352.901C299.844 352.341 298.819 351.37 299.494 348.831C302.446 337.759 305.302 326.66 308.21 315.579C309.542 310.502 310.969 305.452 312.275 300.366C313.598 295.237 311.548 291.158 306.493 289.303C295.858 285.399 285.109 281.784 274.519 277.766C269.271 275.771 264.944 277.031 262.009 281.232C256.771 288.733 249.789 287.438 242.675 285.81C241.764 285.6 240.459 283.639 240.634 282.738C241.37 278.956 242.333 275.167 243.787 271.613C244.331 270.274 246.425 269.564 248.431 268.12C246.95 266.055 245.523 263.762 243.779 261.731C241.974 259.639 241.44 257.529 242.316 254.904C244.602 248.033 247.642 241.608 252.767 235.585C255.211 238.247 257.392 240.628 259.451 242.869C259.889 242.807 260.099 242.842 260.143 242.772C265.18 235.025 272.048 238.212 278.592 239.735C280.861 240.26 281.701 241.66 280.966 244.084C279.687 248.313 278.662 252.619 277.453 256.873C276.647 259.709 277.076 261.547 280.414 262.309C291.864 264.917 303.278 267.709 314.702 270.431C315.105 270.527 315.578 270.484 315.919 270.677C323.585 275.201 328.122 271.648 332.643 265.232C339.905 254.921 348.061 245.231 355.646 235.139C357.951 232.085 360.202 230.947 364.022 232.303C369.173 234.133 374.516 235.411 380.193 237.048C375.874 248.654 371.704 259.473 367.849 270.397C366.246 274.939 365.3 279.71 364.1 284.383C363.434 286.992 364.179 288.498 367.157 288.996C370.276 289.513 373.307 290.598 376.365 291.464C381.043 292.778 384.196 295.85 385.204 300.497C385.712 302.852 386.675 303.832 388.699 304.892C390.188 305.68 391.003 307.754 392.124 309.251C390.293 309.785 388.471 310.38 386.614 310.835C384.617 311.325 382.234 311.141 380.622 312.183C376.426 314.896 371.949 314.782 367.367 314.415C365.029 314.222 362.707 313.382 360.395 313.443C358.598 313.496 356.268 313.995 355.183 315.203C353.518 317.041 352.984 319.456 355.183 321.916C356.278 323.141 356.348 325.277 356.882 327.001C355.183 327.3 353.439 328.008 351.801 327.807C348.402 327.378 345.073 326.467 341.508 325.715H341.516Z"
           fill="#C01933"
           id="path17" />
        <path
           d="M285.615 561.244C285.501 561.734 285.387 562.224 285.273 562.706C285.273 562.741 285.273 562.776 285.334 562.811C285.273 563.03 285.509 563.178 285.737 563.178H296.302C296.127 564.124 295.899 565.052 295.732 565.979H280.998C279.973 565.979 279.29 565.148 279.509 564.132C279.973 562.032 280.42 559.922 280.876 557.804C281.279 555.94 281.559 554.645 279.509 553.708H298.299C298.238 554.181 298.124 554.645 298.01 555.108C297.835 555.887 297.037 556.517 296.294 556.517H286.587C286.473 557.165 286.359 557.804 286.184 558.452H296.294C296.232 558.925 296.118 559.398 296.004 559.852C295.829 560.623 295.093 561.253 294.287 561.253H285.606L285.615 561.244Z"
           fill="#003366"
           id="path18" />
        <path
           d="M319.287 553.708C319.226 554.181 319.112 554.644 318.998 555.117C318.823 555.887 318.087 556.517 317.343 556.517H307.408C307.294 557.007 307.181 557.489 307.067 557.97C307.067 558.224 307.181 558.434 307.408 558.451H316.432C317.457 558.451 318.149 559.284 317.92 560.299C317.631 561.576 317.316 562.846 317.062 564.132C316.861 565.148 315.862 565.979 314.837 565.979H299.936C299.997 565.515 300.111 565.052 300.225 564.579C300.401 563.808 301.084 563.178 301.881 563.178H311.307C311.596 563.178 311.885 562.968 311.937 562.706C311.999 562.382 312.043 562.049 312.113 561.726C312.165 561.472 311.999 561.262 311.771 561.244H302.809C301.723 561.244 301.101 560.412 301.32 559.397C301.434 558.863 301.547 558.338 301.662 557.804C302.065 555.94 302.345 554.644 300.234 553.708H319.304H319.287Z"
           fill="#003366"
           id="path19" />
        <path
           d="M321.2 556.517C321.375 555.589 321.603 554.644 321.769 553.708H339.815C339.754 554.181 339.64 554.644 339.526 555.117C339.351 555.887 338.615 556.517 337.871 556.517H332.956C332.325 559.678 331.642 562.837 330.959 565.979H325.475C326.158 562.828 326.841 559.668 327.472 556.517H321.191H321.2Z"
           fill="#003366"
           id="path20" />
        <path
           d="M345.178 561.668H349.173C348.884 562.99 348.604 564.303 348.314 565.624H344.32C344.608 564.303 344.889 562.99 345.178 561.668Z"
           fill="#003366"
           id="path21" />
        <path
           d="M293.265 582.353C293.326 582.029 293.371 581.696 293.441 581.372C293.493 581.109 293.326 580.891 293.099 580.891H281.448C281.675 579.963 281.851 579.035 282.078 578.09H297.838C298.863 578.09 299.468 578.921 299.266 579.937C299.012 581.232 298.662 582.493 298.407 583.78C298.206 584.786 297.269 585.626 296.235 585.626H286.415C286.073 585.644 285.898 585.854 285.845 586.099C285.731 586.589 285.618 587.079 285.504 587.56H297.093C296.918 588.497 296.69 589.434 296.524 590.362H279.451C279.853 588.471 280.239 586.572 280.65 584.672C280.869 583.657 281.903 582.825 282.876 582.825H292.696C292.985 582.807 293.221 582.606 293.265 582.353Z"
           fill="#003366"
           id="path22" />
        <path
           d="M300.774 588.514C301.36 585.67 302.009 582.807 302.604 579.937C302.814 578.921 303.805 578.09 304.777 578.09H318.767C319.739 578.09 320.344 578.921 320.133 579.937C319.546 582.807 318.898 585.661 318.302 588.514C318.092 589.538 317.103 590.362 316.13 590.362H302.14C301.167 590.362 300.554 589.538 300.764 588.514H300.774ZM312.538 587.56C312.766 587.56 313.055 587.342 313.107 587.079C313.51 585.18 313.905 583.28 314.308 581.363C314.361 581.101 314.194 580.882 313.966 580.882H308.255C308.079 580.882 307.799 581.101 307.738 581.363C307.335 583.271 306.94 585.18 306.538 587.079C306.485 587.342 306.651 587.56 306.827 587.56H312.538Z"
           fill="#003366"
           id="path23" />
        <path
           d="M323.102 580.706C323.33 579.778 323.505 578.85 323.733 577.905H331.153C330.242 582.001 329.383 586.089 328.525 590.186H323.042C323.725 587.025 324.355 583.866 325.039 580.706H323.093H323.102Z"
           fill="#003366"
           id="path24" />
        <path
           d="M339.975 580.706C339.747 580.706 339.519 580.873 339.458 581.074C339.396 581.117 339.362 581.117 339.344 581.187C339.239 581.668 339.169 582.159 339.055 582.641H349.33C350.355 582.641 351.047 583.472 350.82 584.47C350.531 585.757 350.303 587.043 350.022 588.329C349.795 589.354 348.77 590.177 347.736 590.177H333.799C332.774 590.177 332.161 589.354 332.371 588.329C332.957 585.485 333.606 582.623 334.201 579.752C334.412 578.736 335.402 577.905 336.427 577.905H352.248C352.02 578.85 351.845 579.778 351.617 580.706H339.966H339.975ZM338.144 586.903C338.082 587.165 338.258 587.384 338.547 587.384H344.197C344.425 587.384 344.714 587.174 344.767 586.903C344.827 586.58 344.933 586.247 344.994 585.923C345.047 585.669 344.88 585.45 344.653 585.45H338.485C338.371 585.94 338.248 586.421 338.144 586.903Z"
           fill="#003366"
           id="path25" />
        <path
           d="M129.616 192.539C130.457 193.581 131.193 194.727 131.929 195.873C133.155 197.72 133.024 200.416 131.613 201.86C125.201 208.425 118.902 214.885 112.709 221.231C113.48 222.421 114.242 223.586 114.995 224.758C115.512 225.266 116.143 225.441 116.616 225.038C122.266 219.253 128.03 213.353 133.786 207.445C135.74 205.441 138.718 205.738 140.356 208.198C142.397 211.27 144.368 214.395 146.479 217.423C148.153 219.822 147.943 223.41 145.98 225.415C136.528 235.104 126.962 244.899 117.614 254.474C116.791 253.459 116.055 252.304 115.328 251.158C114.102 249.31 114.128 246.728 115.643 245.17C121.618 239.043 127.601 232.925 133.575 226.798C134.119 226.238 134.241 225.248 133.821 224.645C133.278 223.874 132.699 223.139 132.165 222.377C131.744 221.773 131.018 221.695 130.545 222.097C124.789 227.997 119.025 233.897 113.48 239.577C111.412 241.695 108.548 241.284 106.91 238.824C106.06 237.546 105.193 236.286 104.334 235.017C101.33 230.571 99.2442 227.454 93.3226 229.721C105.385 217.362 117.562 204.889 129.624 192.539H129.616Z"
           fill="#C01933"
           id="path26" />
        <path
           d="M145.112 194.377C143.168 189.528 141.687 186.21 135.59 187.173C149.16 178.07 162.729 168.967 176.29 159.864C178.62 158.306 181.336 159.322 182.431 162.035C184.174 166.35 185.971 170.647 187.722 174.928C188.949 177.588 188.055 181.003 185.593 182.648C177.972 187.76 170.22 192.968 162.467 198.167C163.93 201.458 165.252 204.819 166.566 208.171C162.432 210.946 158.297 213.721 154.162 216.496C151.236 209.073 148.179 201.738 145.112 194.377ZM173.838 179.375C173.084 177.658 172.401 175.882 171.638 174.14C171.341 173.466 170.64 173.212 169.991 173.641C165.471 176.678 160.82 179.795 156.168 182.919C157.325 185.483 158.34 188.101 159.479 190.639C164 187.602 168.651 184.486 173.303 181.361C173.82 181.011 174.144 180.066 173.838 179.365V179.375Z"
           fill="#C01933"
           id="path27" />
        <path
           d="M210.262 167.199C210.49 168.599 210.718 170 210.937 171.374C210.972 171.453 211.007 171.558 211.191 171.584C211.27 172.205 212.015 172.372 212.593 172.144C221.396 168.608 230.349 165.01 239.303 161.422C239.863 164.056 240.266 166.727 240.809 169.343C228.247 174.385 215.974 179.313 203.552 184.293C200.95 185.335 198.357 183.865 197.849 180.95C196.798 174.963 195.721 168.985 194.651 162.98C193.705 157.702 193.057 154.008 186.864 153.632C202.606 147.312 218.488 140.94 234.371 134.559C234.721 135.846 234.931 137.194 235.124 138.516C235.509 140.73 234.152 143.198 232.277 143.951C224.051 147.251 215.816 150.56 207.731 153.807C208.125 155.61 208.51 157.413 208.756 159.277C217.279 155.855 225.794 152.432 234.318 149.019C234.668 150.314 234.878 151.662 235.071 152.975C235.448 155.155 234.239 157.571 232.215 158.385C224.848 161.343 217.489 164.293 210.262 167.199Z"
           fill="#C01933"
           id="path28" />
        <path
           d="M261.781 150.28C261.72 151.697 261.658 153.115 261.597 154.507C261.614 154.595 261.632 154.709 261.799 154.761C261.755 155.383 262.438 155.697 263.051 155.593C272.399 153.912 281.894 152.205 291.391 150.498C291.399 153.194 291.251 155.89 291.259 158.559C277.935 160.958 264.918 163.304 251.742 165.667C248.982 166.166 246.74 164.188 246.836 161.238C247.02 155.173 247.178 149.098 247.344 142.997C247.484 137.632 247.607 133.885 241.615 132.266C258.312 129.263 275.158 126.235 292.004 123.198C292.083 124.537 292.013 125.894 291.943 127.224C291.873 129.465 290.041 131.609 288.053 131.968C279.319 133.535 270.594 135.11 262.017 136.651C262.035 138.498 262.053 140.344 261.913 142.209C270.953 140.581 279.984 138.962 289.025 137.334C289.104 138.664 289.034 140.03 288.964 141.36C288.885 143.575 287.212 145.693 285.066 146.078C277.251 147.488 269.447 148.888 261.781 150.27V150.28Z"
           fill="#C01933"
           id="path29" />
        <path
           d="M303.619 133.562C304.881 128.493 305.784 124.94 300.423 122.165C317.224 122.734 334.333 123.312 351.45 123.898C352.694 123.942 353.921 124.616 354.665 125.622C355.41 126.602 355.489 127.863 355.164 129.246C353.299 137.264 351.249 145.264 349.366 153.273C348.7 156.117 345.765 158.376 343.12 158.288C328.034 157.781 313.099 157.273 298.004 156.757C299.975 149.028 301.798 141.29 303.619 133.562ZM333.895 150.07C334.517 150.087 335.016 149.483 335.183 148.783C336.471 143.426 337.872 138.104 339.16 132.748C339.335 132.029 339.046 131.417 338.275 131.391C331.898 131.172 325.678 130.961 319.607 130.76C318.144 137.001 316.533 143.216 315.078 149.43C321.298 149.64 327.526 149.85 333.904 150.07H333.895Z"
           fill="#C01933"
           id="path30" />
        <path
           d="M364.345 123.259C371.467 125.517 378.589 127.776 385.86 130.077C385.808 135.907 385.607 141.684 385.256 147.418C390.801 143.329 396.049 139.146 401.296 134.97C405.448 136.284 409.601 137.605 413.761 138.918C413.56 144.695 413.508 150.524 413.158 156.258C418.553 152.126 423.95 147.986 429.198 143.811C434.243 145.413 439.14 146.962 444.334 148.608C433.262 157.238 422.356 165.894 411.291 174.499C407.139 173.186 402.987 171.864 398.825 170.551C399.035 164.232 399.246 157.903 399.614 151.601C393.604 156.117 387.761 160.652 381.91 165.186C377.757 163.873 373.605 162.551 369.593 161.282C369.786 151.408 370.136 141.588 370.635 131.785C370.635 127.696 360.359 121.99 364.363 123.259H364.345Z"
           fill="#C01933"
           id="path31" />
        <path
           d="M460.786 173.825C463.572 172.932 466.244 171.934 469.179 171.111C470.02 169.221 469.879 167.138 468.154 164.354C469.862 165.449 471.562 166.534 473.392 167.707C474.837 168.625 476.537 169.72 478.114 170.726C479.945 171.9 481.653 172.994 483.484 174.166L483.449 174.21C484.798 175.278 485.201 176.67 485 178.421C482.923 189.738 480.856 201.029 478.92 212.408C474.075 209.309 469.223 206.202 464.633 203.27C464.816 202.114 465.018 200.942 465.342 199.848C460.62 196.827 455.775 193.729 451.054 190.709C449.547 191.042 448.163 191.471 446.805 191.864C442.084 188.845 437.371 185.825 432.78 182.893C441.97 179.795 451.299 176.783 460.769 173.834L460.786 173.825ZM466.883 191.41C467.269 189.362 467.532 187.226 468.048 185.265C465.561 185.974 463.213 186.762 460.725 187.471C462.819 188.81 464.79 190.07 466.883 191.41Z"
           fill="#C01933"
           id="path32" />
        <path
           d="M518.183 201.904C517.632 205.598 517.088 209.265 516.782 213.152C521.328 213.388 525.875 213.624 530.562 213.948C534.355 217.633 538.253 221.432 542.046 225.126C532.857 224.522 523.781 224.032 514.723 223.515C509.922 226.658 505.236 229.905 500.558 233.135C496.879 229.555 493.313 226.08 489.748 222.614C494.417 219.384 499.104 216.136 503.913 212.994C504.833 205.589 505.656 198.053 506.708 190.736C510.501 194.429 514.285 198.114 518.192 201.913L518.183 201.904Z"
           fill="#C01933"
           id="path33" />
        <path
           d="M93.4187 477.491C103.896 474.165 114.382 470.83 124.859 467.504C124.675 469.955 124.535 472.441 124.412 474.769C124.211 478.734 122.915 482.349 121.574 482.726C116.116 484.231 106.752 485.509 105.394 487.19C104.571 488.214 105.026 493.465 104.737 496.625C110.396 495.225 115.959 493.86 121.714 492.433C121.627 494.822 121.434 497.247 121.268 499.592C120.978 503.496 119.664 506.972 118.412 507.225C113.514 508.232 108.609 509.238 103.809 510.227C103.248 517.903 102.678 525.501 102.109 533.046C98.9293 533.475 95.8363 533.896 92.8495 534.298C93.8304 521.475 94.864 508.643 95.8189 495.829C96.4763 487.006 96.8612 480.756 93.4187 477.509V477.491Z"
           fill="#C01933"
           id="path34" />
        <path
           d="M129.335 486.69C129.949 477.211 130.308 470.48 126.935 466.839C131.237 465.473 135.538 464.108 139.839 462.742C138.893 478.865 137.947 494.979 136.975 511.102C136.896 512.468 137.185 513.536 137.667 513.457C142.38 512.626 147.198 511.776 152.007 510.928C151.665 516.153 152.226 525.177 151.069 526.412C149.265 528.346 136.799 528.346 129.756 529.3C128.022 529.537 126.856 525.475 127.207 520.179C127.934 509.019 128.626 497.85 129.344 486.699L129.335 486.69Z"
           fill="#C01933"
           id="path35" />
        <path
           d="M159.795 478.831C160.356 468.545 160.697 461.246 157.307 457.193C161.608 455.827 165.91 454.462 170.307 453.062C169.116 476.809 167.889 500.564 166.566 524.302C163.386 524.731 160.294 525.151 157.307 525.554C158.148 509.982 158.945 494.375 159.795 478.831Z"
           fill="#C01933"
           id="path36" />
        <path
           d="M202.545 501.466C202.474 503.627 202.317 505.825 202.247 507.996C201.949 514.394 200.372 519.733 198.734 519.961C190.92 521.019 183.211 522.062 175.493 523.103C173.855 523.322 172.673 518.717 172.979 512.73C173.084 510.718 173.224 508.66 173.303 506.63C173.846 496.266 174.381 485.894 174.915 475.53C175.485 464.537 175.774 456.79 172.374 452.414C183.263 448.956 194.126 445.526 205.103 442.339C204.954 445.324 204.84 448.344 204.744 451.206C204.586 456.064 203.333 460.379 201.992 460.712C196.158 462.174 190.254 463.792 184.507 465.377C183.877 477.824 183.255 490.262 182.711 502.709C182.711 502.893 182.659 503.164 182.624 503.33C182.414 504.293 182.939 505.457 183.421 505.378C186.4 504.853 189.387 504.319 192.461 503.785C192.847 503.715 193.127 502.989 193.303 501.956C193.39 501.57 193.364 501.125 193.382 500.756C193.513 497.78 193.688 494.778 193.846 491.741C191.349 492.24 188.861 492.756 186.356 493.273C186.584 487.644 185.804 477.903 187.127 476.275C188.572 474.506 198.217 473.57 203.78 472.318C203.569 478.235 203.272 484.091 203.061 489.921C202.921 493.763 202.667 497.64 202.545 501.466Z"
           fill="#C01933"
           id="path37" />
        <path
           d="M210.148 466.209C210.56 458.541 211.76 448.668 207.398 441.7C211.708 440.536 216.123 439.425 220.459 438.401C220.03 448.615 219.601 458.839 219.163 469.053C222.632 468.362 226.005 467.714 229.483 467.075C229.894 456.755 230.279 446.436 230.691 436.116C233.783 435.468 236.885 434.856 240.091 434.26C238.996 461.106 237.892 487.96 236.727 514.805C233.547 515.234 230.56 515.636 227.467 516.056C227.836 505.807 228.247 495.566 228.677 485.325C225.295 485.885 221.826 486.48 218.454 487.076C218.024 497.203 217.586 507.321 217.157 517.449C213.977 517.877 210.981 518.28 207.897 518.7C208.703 501.203 209.229 483.469 210.148 466.2V466.209Z"
           fill="#C01933"
           id="path38" />
        <path
           d="M244.568 451.854C244.778 445.736 243.972 434.847 245.303 433.332C247.817 430.488 265.802 430.321 276.157 429.183C276.087 432.265 275.903 435.363 275.745 438.445C275.482 443.468 274.256 447.766 272.985 447.906C270.156 448.221 267.326 448.562 264.602 448.913C263.726 469.745 262.798 490.576 261.86 511.409C258.776 511.829 255.693 512.24 252.6 512.66C253.511 491.837 254.414 471.014 255.255 450.19C251.654 450.716 248.063 451.276 244.568 451.854Z"
           fill="#C01933"
           id="path39" />
        <path
           d="M299.143 445.753C299.415 439.731 298.898 428.711 300.063 427.573C302.428 425.253 320.737 427.275 331.127 427.512C331.022 430.54 330.811 433.578 330.61 436.588C330.294 441.508 329.024 445.56 327.745 445.526C324.907 445.438 322.06 445.377 319.318 445.359C318.214 465.666 317.058 485.964 315.901 506.271C312.8 506.271 309.699 506.341 306.598 506.463C307.719 486.113 308.85 465.762 309.91 445.412C306.283 445.473 302.656 445.596 299.135 445.762L299.143 445.753Z"
           fill="#C01933"
           id="path40" />
        <path
           d="M341.919 507.706C338.731 507.365 335.735 507.102 332.643 506.892C333.668 489.107 334.482 471.084 335.735 453.535C336.321 445.254 337.522 435.372 333.466 427.599C334.648 427.652 336.024 427.713 337.303 427.775C340.448 427.932 343.584 428.125 346.729 428.352C352.615 428.781 358.502 429.332 364.372 430.016C366.132 430.216 367.237 435.853 366.798 442.453C366.098 452.948 365.362 463.504 364.74 473.938C364.345 480.563 362.497 485.789 360.85 485.579C360.079 485.482 359.396 485.395 358.818 485.316C360.193 493.728 361.665 502.122 363.242 510.498C360.062 510.061 356.785 509.614 353.606 509.177C350.916 494.621 348.227 480.073 345.555 465.517C348.674 465.806 351.783 466.156 354.99 466.515C355.472 466.567 355.761 465.185 355.892 463.478C356.199 459.215 356.452 454.987 356.768 450.663C356.891 449.009 356.698 447.574 356.208 447.53C352.598 447.145 349.173 446.821 345.66 446.532C344.381 466.917 343.12 487.303 341.946 507.689L341.919 507.706Z"
           fill="#C01933"
           id="path41" />
        <path
           d="M380.403 459.976C381.63 454.926 382.76 449.797 384.091 444.712C383.96 439.932 383.224 435.923 381.419 432.344C382.681 432.545 383.951 432.746 385.317 432.974C386.386 433.149 387.657 433.368 388.822 433.578C390.179 433.814 391.45 434.042 392.808 434.296C392.808 434.356 392.808 434.426 392.808 434.426C393.867 435.022 394.516 437.35 394.954 441.105C397.319 465.999 399.702 490.883 402.155 515.768C398.589 515.278 392.466 515.181 391.643 514.332C390.977 513.641 391.546 507.313 390.968 506.691C390.092 505.746 381.332 504.643 380.447 505.221C379.711 505.702 379.115 512.144 378.528 512.538C377.556 513.194 371.59 511.593 368.218 511.129C372.186 494.052 376.251 477.01 380.412 459.976H380.403ZM389.172 488.038C388.751 483.495 388.226 478.935 387.893 474.392C386.772 478.708 385.747 483.031 384.625 487.364C386.176 487.592 387.622 487.811 389.172 488.038Z"
           fill="#C01933"
           id="path42" />
        <path
           d="M407.542 463.118C408.234 454.646 409.294 444.956 405.588 436.886C409.934 437.832 414.27 438.856 418.693 439.967C416.872 465.736 415.041 491.513 413.148 517.273C409.968 516.836 406.885 516.415 403.889 516.004C405.107 498.376 406.123 480.511 407.542 463.118Z"
           fill="#C01933"
           id="path43" />
        <path
           d="M423.03 466.357C423.722 458.015 424.799 448.458 420.989 440.545C425.211 441.639 429.512 442.821 433.708 444.046C436.477 458.034 439.342 471.994 442.276 485.946C443.196 473.141 444.107 460.336 445.027 447.521C448.084 448.492 451.142 449.464 454.199 450.436C452.49 474.366 450.783 498.306 449.083 522.236C445.999 521.816 443.012 521.405 440.113 521.011C437.099 507.251 434.234 493.465 431.396 479.662C430.45 492.914 429.495 506.175 428.54 519.427C425.457 519.007 422.373 518.586 419.281 518.157C420.569 500.888 421.594 483.373 423.004 466.34L423.03 466.357Z"
           fill="#C01933"
           id="path44" />
        <path
           d="M458.553 475.189C459.306 464.843 459.788 457.631 456.494 451.18C460.796 452.545 465.096 453.911 469.494 455.311C467.829 478.305 466.157 501.308 464.422 524.293C461.242 523.856 458.158 523.436 455.162 523.024C456.293 507.076 457.388 491.093 458.553 475.189Z"
           fill="#C01933"
           id="path45" />
        <path
           d="M473.979 479.181C474.715 469.238 475.276 462.34 471.781 456.037C475.985 457.377 480.287 458.742 484.491 460.073C487.313 472.511 490.274 484.922 493.348 497.307C494.189 486.104 495.03 474.9 495.871 463.688C498.928 464.659 501.986 465.631 505.043 466.603C503.484 487.487 501.925 508.38 500.374 529.264C497.29 528.844 494.303 528.433 491.412 528.039C488.25 515.864 485.333 503.636 482.433 491.399C481.566 503.084 480.707 514.77 479.84 526.455C476.757 526.035 473.673 525.615 470.58 525.186C471.755 509.851 472.84 494.472 473.971 479.172L473.979 479.181Z"
           fill="#C01933"
           id="path46" />
        <path
           d="M536.501 520.599C536.396 522.201 536.212 523.811 536.116 525.422C535.721 530.158 534.083 533.825 532.445 533.606C524.639 532.539 516.922 531.479 509.213 530.429C507.575 530.201 506.462 525.816 506.848 520.625C506.979 518.884 507.154 517.116 507.26 515.356C507.96 506.516 508.617 497.658 509.31 488.826C510.036 479.557 510.431 473.132 507.11 467.259C518.035 470.734 528.958 474.2 539.891 477.675C539.698 479.785 539.541 481.937 539.41 483.995C539.191 487.443 537.876 490.156 536.527 489.78C530.684 488.17 524.754 486.533 519.007 484.94C518.201 495.006 517.43 505.081 516.694 515.155C516.694 515.304 516.632 515.531 516.598 515.645C516.37 516.355 516.878 517.527 517.36 517.614C520.338 518.149 523.326 518.674 526.401 519.225C526.786 519.295 527.075 518.805 527.268 518.053C527.364 517.772 527.347 517.422 527.364 517.133C527.54 514.831 527.758 512.529 527.96 510.201C525.463 509.685 522.967 509.168 520.461 508.651C520.768 504.135 520.899 495.522 521.468 495.111C522.546 494.323 532.576 498.121 538.156 499.198C537.867 503.522 537.482 507.811 537.184 512.1C536.991 514.928 536.685 517.763 536.501 520.591V520.599Z"
           fill="#C01933"
           id="path47" />
      </g>
    </g>
  </g>
  <defs
     id="defs49">
    <clipPath
       id="clip0_432_638">
      <rect
         width="629"
         height="700"
         fill="white"
         id="rect49" />
    </clipPath>
  </defs>
</svg>
